HIERARCHY
ROOT Hips
{
	OFFSET	0.00	0.00	0.00
	CHANNELS 6 Xposition Yposition Zposition Zrotation Xrotation Yrotation
	JOINT LeftUpLeg
	{
		OFFSET	 0.126116	-0.014019	-0.065224
		CHANNELS 3 Zrotation Xrotation Yrotation
		JOINT LeftLeg
		{
			OFFSET	 0.000000	 0.000000	 0.569914
			CHANNELS 3 Zrotation Xrotation Yrotation
			JOINT LeftFoot
			{
				OFFSET	 0.000000	 0.000000	 0.544423
				CHANNELS 3 Zrotation Xrotation Yrotation
				JOINT LeftToeBase
				{
					OFFSET	 0.000000	 0.000000	 0.207117
					CHANNELS 3 Zrotation Xrotation Yrotation
					End Site
					{
						OFFSET	 0.000000	 0.000000	 0.207117
					}
				}
			}
		}
	}
	JOINT RightUpLeg
	{
		OFFSET	-0.124023	-0.008373	-0.065224
		CHANNELS 3 Zrotation Xrotation Yrotation
		JOINT RightLeg
		{
			OFFSET	 0.000000	 0.000000	 0.570047
			CHANNELS 3 Zrotation Xrotation Yrotation
			JOINT RightFoot
			{
				OFFSET	 0.000000	 0.000000	 0.544354
				CHANNELS 3 Zrotation Xrotation Yrotation
				JOINT RightToeBase
				{
					OFFSET	 0.000000	 0.000000	 0.207540
					CHANNELS 3 Zrotation Xrotation Yrotation
					End Site
					{
						OFFSET	 0.000000	 0.000000	 0.207540
					}
				}
			}
		}
	}
	JOINT Spine
	{
		OFFSET	 0.000184	-0.007763	 0.117403
		CHANNELS 3 Zrotation Xrotation Yrotation
		JOINT Spine1
		{
			OFFSET	 0.000000	 0.000000	 0.137269
			CHANNELS 3 Zrotation Xrotation Yrotation
			JOINT Spine2
			{
				OFFSET	 0.000000	 0.000000	 0.156879
				CHANNELS 3 Zrotation Xrotation Yrotation
				JOINT LeftShoulder
				{
					OFFSET	 0.080501	-0.002496	 0.160144
					CHANNELS 3 Zrotation Xrotation Yrotation
					JOINT LeftArm
					{
						OFFSET	 0.000000	 0.000000	 0.164363
						CHANNELS 3 Zrotation Xrotation Yrotation
						JOINT LeftForeArm
						{
							OFFSET	 0.000000	 0.000000	 0.364576
							CHANNELS 3 Zrotation Xrotation Yrotation
							JOINT LeftHand
							{
								OFFSET	 0.000000	 0.000000	 0.360812
								CHANNELS 3 Zrotation Xrotation Yrotation
								JOINT LeftHandIndex1
								{
									OFFSET	 0.000000	 0.000000	 0.086006
									CHANNELS 3 Zrotation Xrotation Yrotation
									JOINT LeftHandIndex2
									{
										OFFSET	 0.000000	 0.000000	 0.047236
										CHANNELS 3 Zrotation Xrotation Yrotation
										JOINT LeftHandIndex3
										{
											OFFSET	-0.004284	-0.000551	 0.038166
											CHANNELS 3 Zrotation Xrotation Yrotation
											End Site
											{
												OFFSET	-0.004284	-0.000551	 0.038166
											}
										}
									}
								}
							}
						}
					}
				}
				JOINT Neck
				{
					OFFSET	 0.000000	 0.000000	 0.176489
					CHANNELS 3 Zrotation Xrotation Yrotation
					JOINT Head
					{
						OFFSET	 0.000000	-0.001747	 0.077940
						CHANNELS 3 Zrotation Xrotation Yrotation
						End Site
						{
							OFFSET	 0.000000	-0.001747	 0.077940
						}
					}
				}
				JOINT RightShoulder
				{
					OFFSET	-0.080363	 0.000306	 0.159706
					CHANNELS 3 Zrotation Xrotation Yrotation
					JOINT RightArm
					{
						OFFSET	 0.000000	 0.000000	 0.164196
						CHANNELS 3 Zrotation Xrotation Yrotation
						JOINT RightForeArm
						{
							OFFSET	 0.000000	 0.000000	 0.365611
							CHANNELS 3 Zrotation Xrotation Yrotation
							JOINT RightHand
							{
								OFFSET	 0.000000	 0.000000	 0.360648
								CHANNELS 3 Zrotation Xrotation Yrotation
								JOINT RightHandIndex1
								{
									OFFSET	 0.000000	 0.000000	 0.069977
									CHANNELS 3 Zrotation Xrotation Yrotation
									JOINT RightHandIndex2
									{
										OFFSET	 0.000000	 0.000000	 0.052305
										CHANNELS 3 Zrotation Xrotation Yrotation
										JOINT RightHandIndex3
										{
											OFFSET	 0.009002	-0.000782	 0.042196
											CHANNELS 3 Zrotation Xrotation Yrotation
											End Site
											{
												OFFSET	 0.009002	-0.000782	 0.042196
											}
										}
									}
								}
							}
						}
					}
				}
			}
		}
	}
}
MOTION
Frames:    7
Frame Time: 0.03333334
 3.889464	 0.058723	 1.194851	 87.512110	-2.322338	-1.128661	 7.247100	 20.015520	-176.763500	-3.577415	-11.633220	 1.466664	 3.478382	 84.284200	-0.163070	-2.307623	 39.132910	-0.252627	 4.838524	-35.595730	-177.970700	 1.589588	-44.353550	 5.485310	 103.271100	 89.864380	-97.342020	 2.372467	 30.821480	 0.053539	-8.047053	 3.832441	 2.451469	-12.869220	-0.405822	 0.257739	-15.242580	-2.296346	-1.813058	-91.776180	 78.527420	-180.000000	 35.591570	 60.599320	-53.603230	-8.958287	-4.960061	-35.673270	 4.324364	 2.686984	-5.371314	-3.812334	 37.924440	-2.927599	-2.450526	 36.184240	 0.754587	-1.378229	 35.397820	-2.634230	 1.214884	 2.149975	-4.949363	-2.536262	-9.654757	 2.654506	 89.782120	 78.203870	 180.000000	-38.109780	 71.931630	 35.616460	 0.073579	-6.841138	 22.271020	-14.276130	 1.486627	 9.550961	 6.437017	 35.671460	-0.771858	 2.830251	 35.756010	-7.813440	-2.350882	 35.473990	 5.254307
 3.914001	 0.056908	 1.194007	 87.728080	-2.111703	-1.230832	 7.334146	 20.990340	-176.898500	-3.536182	-11.629820	 1.493910	 3.778611	 84.423810	-0.345279	-2.294642	 40.299070	-0.283673	 5.201000	-35.862490	-177.645300	 0.507621	-41.493530	 4.582819	 129.630300	 89.739810	-124.058000	 2.368450	 31.513270	 0.069128	-8.082239	 3.683843	 2.376317	-12.893640	-0.493646	 0.216005	-15.257040	-2.383178	-1.841113	-91.776180	 78.527400	-180.000000	 35.843500	 60.509140	-54.083300	-9.021819	-4.960215	-36.258380	 4.166028	 1.982289	-5.364118	-3.812334	 37.924440	-2.927599	-2.450526	 36.184240	 0.754587	-1.378229	 35.397820	-2.634230	 1.225314	 2.177766	-4.964155	-2.517082	-9.777888	 2.869385	 89.782120	 78.203930	 180.000000	-37.532120	 72.299570	 34.930350	 0.206808	-6.790517	 21.805540	-14.344190	 0.805944	 9.544006	 6.437017	 35.671460	-0.771858	 2.830251	 35.756010	-7.813440	-2.350882	 35.473990	 5.254307
 3.939414	 0.054967	 1.193082	 87.960160	-1.974257	-1.291190	 7.413043	 22.048420	-177.066900	-3.449668	-11.625650	 1.525874	 4.106989	 84.416300	-0.523938	-2.277548	 41.704620	-0.322307	 5.253362	-36.057630	-177.525000	-0.069180	-39.394950	 3.979377	 148.865200	 89.527700	-143.560300	 2.363881	 32.253750	 0.086001	-8.136175	 3.586497	 2.256753	-12.924740	-0.575745	 0.155601	-15.258120	-2.478751	-1.877732	-91.776180	 78.527400	-180.000000	 36.246590	 60.546600	-54.614950	-9.065014	-4.971448	-36.617300	 4.056820	 1.223367	-5.362744	-3.812334	 37.924440	-2.927599	-2.450526	 36.184240	 0.754587	-1.378229	 35.397820	-2.634230	 1.226609	 2.152625	-4.987216	-2.496714	-9.844370	 3.125237	 89.782070	 78.203930	-180.000000	-36.915240	 72.640980	 34.226370	 0.287944	-6.742892	 21.299680	-14.442890	 0.044120	 9.537687	 6.437017	 35.671460	-0.771858	 2.830251	 35.756010	-7.813440	-2.350882	 35.473990	 5.254307
 3.967864	 0.052751	 1.192116	 88.226410	-1.911842	-1.319485	 7.545032	 23.241540	-177.400200	-3.261728	-11.619270	 1.574322	 4.520248	 84.194180	-0.694853	-2.253586	 43.475900	-0.373084	 5.138139	-36.065010	-177.410000	-0.225026	-38.106880	 3.671940	 153.061700	 89.369440	-147.879600	 2.360563	 32.762000	 0.097713	-8.208196	 3.529665	 2.114659	-12.957600	-0.644146	 0.069194	-15.239470	-2.560410	-1.919014	-91.776180	 78.527400	-180.000000	 36.732010	 60.741950	-55.023470	-9.100672	-4.988894	-36.739700	 3.982060	 0.322344	-5.361737	-3.812334	 37.924440	-2.927599	-2.450526	 36.184240	 0.754587	-1.378229	 35.397820	-2.634230	 1.236050	 2.099189	-5.014515	-2.469196	-9.876864	 3.395535	 89.782090	 78.203830	-180.000000	-36.275640	 72.968130	 33.513580	 0.328255	-6.687113	 20.733930	-14.551540	-0.857644	 9.532388	 6.437017	 35.671460	-0.771858	 2.830251	 35.756010	-7.813440	-2.350882	 35.473990	 5.254307
 3.995697	 0.050284	 1.191211	 88.480270	-1.952028	-1.323297	 7.709215	 24.400590	-177.839600	-2.977083	-11.610760	 1.636559	 4.940043	 83.687290	-0.786992	-2.231030	 44.973820	-0.418039	 4.968222	-35.865860	-177.424400	 0.024517	-37.757110	 3.706809	 151.645800	 89.384510	-146.350200	 2.361360	 32.642670	 0.094955	-8.269878	 3.492829	 2.002817	-12.979270	-0.684820	-0.027173	-15.200130	-2.595589	-1.952275	-91.776180	 78.527420	-180.000000	 37.331780	 61.014850	-55.458260	-9.126035	-4.991439	-36.634440	 3.916328	-0.598682	-5.361827	-3.812334	 37.924440	-2.927599	-2.450526	 36.184240	 0.754587	-1.378229	 35.397820	-2.634230	 1.261196	 2.073831	-5.031217	-2.430357	-9.900733	 3.612926	 89.782120	 78.203930	 180.000000	-35.762140	 73.229670	 32.947930	 0.317531	-6.629624	 20.199520	-14.643500	-1.777955	 9.529428	 6.437017	 35.671460	-0.771858	 2.830251	 35.756010	-7.813440	-2.350882	 35.473990	 5.254307
 4.025881	 0.047182	 1.190185	 88.746840	-2.009415	-1.324101	 7.915774	 25.644660	-178.407500	-2.576049	-11.599220	 1.717025	 5.377425	 82.814060	-0.784073	-2.209715	 46.265290	-0.458472	 4.879284	-35.585810	-177.523300	 0.467177	-38.021940	 3.977802	 139.630900	 89.591700	-134.045700	 2.366184	 31.886670	 0.077606	-8.329670	 3.450205	 1.936604	-12.993770	-0.703841	-0.137791	-15.136360	-2.575224	-1.978857	-91.776180	 78.527400	-180.000000	 38.066160	 61.382110	-55.828780	-9.138987	-4.965072	-36.335760	 3.821528	-1.642351	-5.363277	-3.812334	 37.924440	-2.927599	-2.450526	 36.184240	 0.754587	-1.378229	 35.397820	-2.634230	 1.308931	 2.122097	-5.058465	-2.378047	-9.951381	 3.825734	 89.782120	 78.203870	 180.000000	-35.361330	 73.452810	 32.508210	 0.252870	-6.565692	 19.651060	-14.722440	-2.818860	 9.529083	 6.437017	 35.671460	-0.771858	 2.830251	 35.756010	-7.813440	-2.350882	 35.473990	 5.254307
 4.057491	 0.043748	 1.189216	 89.020330	-2.078396	-1.308878	 8.155461	 26.905630	-179.076000	-2.139548	-11.587020	 1.798645	 5.716541	 81.544110	-0.648674	-2.185267	 47.624940	-0.502857	 4.840468	-34.972570	-177.636300	 0.981690	-38.779910	 4.395529	 82.065170	 89.764270	-76.129670	 2.373217	 30.685950	 0.050507	-8.395901	 3.385042	 1.899644	-13.008200	-0.707346	-0.262766	-15.047880	-2.503932	-2.005748	-91.776180	 78.527400	-180.000000	 38.870000	 61.839730	-56.056050	-9.136542	-4.914425	-35.833770	 3.711151	-2.738213	-5.371614	-3.812334	 37.924440	-2.927599	-2.450526	 36.184240	 0.754587	-1.378229	 35.397820	-2.634230	 1.376479	 2.259089	-5.105951	-2.314963	-10.042500	 4.036981	 89.782090	 78.203830	-180.000000	-34.952500	 73.649020	 32.062870	 0.183625	-6.500430	 19.131240	-14.775640	-3.936139	 9.532806	 6.437017	 35.671460	-0.771858	 2.830251	 35.756010	-7.813440	-2.350882	 35.473990	 5.254307
